<svg width="327" height="167" viewBox="0 0 327 167" fill="none" xmlns="http://www.w3.org/2000/svg">
<g filter="url(#filter0_ddd)">
<path d="M47 24C47 38.4516 35.845 49 23.5 49C17.7358 49 12.231 46.7002 8.00006 42.7771C8.0028 24.7334 8.12803 15.5877 13.8579 9.85786C18.5269 5.18884 25.464 4.24127 37.6355 4.04897C43.2244 8.50587 47 15.5924 47 24Z" fill="url(#paint0_linear)"/>
<path d="M8 66.0594V115C8 133.856 8 143.284 13.8579 149.142C19.7157 155 29.1438 155 48 155H244.358C234.263 144.836 228 130.67 228 115C228 84.0721 252.4 59 282.5 59C296.539 59 309.338 64.4544 319 73.4133V44C319 25.1438 319 15.7157 313.142 9.85786C307.284 4 297.856 4 279 4H62.4783C65.3726 10.0248 67 16.8158 67 24C67 48.8528 47.5244 69 23.5 69C18.04 69 12.8149 67.9594 8 66.0594Z" fill="url(#paint1_linear)"/>
<path d="M282.5 151C301.045 151 317 135.398 317 115C317 94.6024 301.045 79 282.5 79C263.955 79 248 94.6024 248 115C248 135.398 263.955 151 282.5 151Z" fill="url(#paint2_linear)"/>
</g>
<defs>
<filter id="filter0_ddd" x="0" y="0" width="327" height="167" filterUnits="userSpaceOnUse" color-interpolation-filters="sRGB">
<feFlood flood-opacity="0" result="BackgroundImageFix"/>
<feColorMatrix in="SourceAlpha" type="matrix" values="0 0 0 0 0 0 0 0 0 0 0 0 0 0 0 0 0 0 127 0"/>
<feOffset/>
<feGaussianBlur stdDeviation="0.5"/>
<feColorMatrix type="matrix" values="0 0 0 0 0 0 0 0 0 0 0 0 0 0 0 0 0 0 0.04 0"/>
<feBlend mode="normal" in2="BackgroundImageFix" result="effect1_dropShadow"/>
<feColorMatrix in="SourceAlpha" type="matrix" values="0 0 0 0 0 0 0 0 0 0 0 0 0 0 0 0 0 0 127 0"/>
<feOffset/>
<feGaussianBlur stdDeviation="1"/>
<feColorMatrix type="matrix" values="0 0 0 0 0 0 0 0 0 0 0 0 0 0 0 0 0 0 0.06 0"/>
<feBlend mode="normal" in2="effect1_dropShadow" result="effect2_dropShadow"/>
<feColorMatrix in="SourceAlpha" type="matrix" values="0 0 0 0 0 0 0 0 0 0 0 0 0 0 0 0 0 0 127 0"/>
<feOffset dy="4"/>
<feGaussianBlur stdDeviation="4"/>
<feColorMatrix type="matrix" values="0 0 0 0 0 0 0 0 0 0 0 0 0 0 0 0 0 0 0.04 0"/>
<feBlend mode="normal" in2="effect2_dropShadow" result="effect3_dropShadow"/>
<feBlend mode="normal" in="SourceGraphic" in2="effect3_dropShadow" result="shape"/>
</filter>
<linearGradient id="paint0_linear" x1="194" y1="139.5" x2="148.41" y2="-6.72602" gradientUnits="userSpaceOnUse">
<stop stop-color="#0957DF"/>
<stop offset="1" stop-color="#0954E7"/>
</linearGradient>
<linearGradient id="paint1_linear" x1="194" y1="139.5" x2="148.41" y2="-6.72602" gradientUnits="userSpaceOnUse">
<stop stop-color="#0957DF"/>
<stop offset="1" stop-color="#0954E7"/>
</linearGradient>
<linearGradient id="paint2_linear" x1="194" y1="139.5" x2="148.41" y2="-6.72602" gradientUnits="userSpaceOnUse">
<stop stop-color="#0957DF"/>
<stop offset="1" stop-color="#0954E7"/>
</linearGradient>
</defs>
</svg>
