<svg width="18" height="18" viewBox="0 0 18 18" fill="none" xmlns="http://www.w3.org/2000/svg">
<path d="M16.3167 15.4549L13.7386 12.9343L13.6782 12.8424C13.5658 12.7306 13.4122 12.6676 13.2519 12.6676C13.0915 12.6676 12.9379 12.7306 12.8256 12.8424C10.6346 14.8525 7.25861 14.9617 4.9365 13.0978C2.6144 11.2338 2.06675 7.975 3.65676 5.4826C5.24678 2.9902 8.48105 2.0376 11.2146 3.25657C13.9482 4.47554 15.3329 7.48781 14.4503 10.2957C14.3867 10.4985 14.4387 10.7191 14.5866 10.8743C14.7345 11.0296 14.9558 11.0959 15.1673 11.0483C15.3787 11.0007 15.5482 10.8464 15.6117 10.6436C16.6668 7.31145 15.0733 3.72564 11.8621 2.20576C8.65087 0.685891 4.78563 1.68809 2.76679 4.56403C0.747953 7.43998 1.18138 11.3266 3.7867 13.7096C6.39201 16.0926 10.3873 16.2569 13.1881 14.0961L15.4707 16.3279C15.7065 16.5573 16.0876 16.5573 16.3234 16.3279C16.5589 16.0951 16.5589 15.7204 16.3234 15.4877L16.3167 15.4549Z" fill="url(#paint0_linear)"/>
<defs>
<linearGradient id="paint0_linear" x1="10.4711" y1="14.9602" x2="3.22473" y2="3.67565" gradientUnits="userSpaceOnUse">
<stop stop-color="#0957DF"/>
<stop offset="1" stop-color="#0954E7"/>
</linearGradient>
</defs>
</svg>
